<?xml version="1.0" encoding="utf-8"?>
<!-- Generator: Adobe Illustrator 25.0.0, SVG Export Plug-In . SVG Version: 6.00 Build 0)  -->
<svg version="1.1" id="Camada_1" xmlns="http://www.w3.org/2000/svg" xmlns:xlink="http://www.w3.org/1999/xlink" x="0px" y="0px"
	 viewBox="0 0 300 76" style="enable-background:new 0 0 300 76;" xml:space="preserve">
<style type="text/css">
	.st0{fill:#C29A4A;}
	.st1{fill-rule:evenodd;clip-rule:evenodd;fill:#C29A4A;}
	.st2{clip-path:url(#SVGID_2_);fill:url(#SVGID_3_);}
	.st3{clip-path:url(#SVGID_5_);fill:url(#SVGID_6_);}
</style>
<g>
	<path class="st0" d="M157.9,23.9h6c0.2,0,0.4,0.1,0.6,0.3c0.2,0.2,0.3,0.4,0.3,0.8v7.9c0,0.4-0.1,0.7-0.3,0.8
		c-0.2,0.2-0.4,0.3-0.6,0.3h-6V23.9z M169.3,23.1c0-0.4-0.1-0.7-0.3-1.1c-0.2-0.3-0.5-0.7-0.8-0.9c-0.3-0.3-0.7-0.5-1.1-0.6
		s-0.8-0.2-1.2-0.2h-12.4v17.3h12.4c0.4,0,0.8-0.1,1.2-0.2c0.4-0.2,0.8-0.4,1.1-0.6c0.3-0.3,0.6-0.6,0.8-0.9
		c0.2-0.3,0.3-0.7,0.3-1.1V23.1z M132.4,30.7v-3.6h14.4v3.6H132.4z M146.8,23.9h-14.4v-3.6h14.4V23.9z M132.4,37.5v-3.6h14.4v3.6
		H132.4z M112.6,37.5h4.5V23.9h3.3c0.2,0,0.4,0.1,0.6,0.3c0.2,0.2,0.3,0.4,0.3,0.8v12.6h4.5V23.1c0-0.4-0.1-0.7-0.3-1.1
		c-0.2-0.3-0.5-0.7-0.8-0.9c-0.3-0.3-0.7-0.5-1.1-0.6c-0.4-0.2-0.8-0.2-1.2-0.2H104v17.3h4.5V23.9h4.2V37.5z"/>
	<path class="st0" d="M280.5,52v-3.6H295V52H280.5z M295,45.2h-14.4v-3.6H295V45.2z M280.5,58.8v-3.6H295v3.6H280.5z M273.9,56v-4.8
		c0-0.4-0.1-0.7-0.3-1.1c-0.2-0.3-0.5-0.7-0.8-0.9c-0.3-0.3-0.7-0.5-1.1-0.6c-0.4-0.2-0.8-0.2-1.2-0.2h-4.7v3.6h2.6
		c0.3,0,0.5,0.1,0.7,0.2c0.2,0.2,0.3,0.4,0.3,0.9v1.2c0,0.4-0.1,0.7-0.3,0.8c-0.2,0.2-0.4,0.3-0.6,0.3h-4.9c-0.3,0-0.5-0.1-0.7-0.2
		c-0.2-0.2-0.3-0.4-0.3-0.9v-7.9c0-0.4,0.1-0.7,0.3-0.9c0.2-0.2,0.5-0.2,0.7-0.2h10.3v-3.6h-12.4c-0.4,0-0.8,0.1-1.2,0.2
		c-0.4,0.2-0.8,0.4-1.1,0.6c-0.3,0.3-0.6,0.6-0.8,0.9c-0.2,0.3-0.3,0.7-0.3,1.1V56c0,0.4,0.1,0.7,0.3,1.1c0.2,0.3,0.5,0.7,0.8,0.9
		c0.3,0.3,0.7,0.5,1.1,0.6c0.4,0.2,0.8,0.2,1.2,0.2h8.9c0.4,0,0.8-0.1,1.2-0.2c0.4-0.2,0.8-0.4,1.1-0.6c0.3-0.3,0.6-0.6,0.8-0.9
		C273.8,56.7,273.9,56.3,273.9,56z M240,58.8V45.2h6c0.2,0,0.4,0.1,0.6,0.3c0.2,0.2,0.3,0.4,0.3,0.8v1c0,0.4-0.1,0.7-0.3,0.8
		c-0.2,0.2-0.4,0.3-0.6,0.3h-4.7V52h1.8l3.5,6.8h4.8l-3.5-6.8c0.4,0,0.8-0.1,1.2-0.2c0.4-0.2,0.8-0.4,1.1-0.6
		c0.3-0.3,0.6-0.6,0.8-0.9c0.2-0.3,0.3-0.7,0.3-1.1v-4.7c0-0.4-0.1-0.7-0.3-1.1c-0.2-0.3-0.5-0.7-0.8-0.9c-0.3-0.3-0.7-0.5-1.1-0.6
		c-0.4-0.2-0.8-0.2-1.2-0.2h-12.4v17.3H240z M214.4,52v-3.6h14.4V52H214.4z M228.9,45.2h-14.4v-3.6h14.4V45.2z M214.4,58.8v-3.6
		h14.4v3.6H214.4z M193.9,55.2v3.6h13.8v-3.6h-4.7V45.2h4.7v-3.6h-13.8v3.6h4.7v10.1H193.9z M175.9,46.3v7.9c0,0.4,0.1,0.7,0.3,0.9
		c0.2,0.2,0.5,0.2,0.7,0.2h4.9c0.2,0,0.4-0.1,0.6-0.3c0.2-0.2,0.3-0.4,0.3-0.8v-1.5h4.5V56c0,0.4-0.1,0.7-0.3,1.1
		c-0.2,0.3-0.5,0.7-0.8,0.9c-0.3,0.3-0.7,0.5-1.1,0.6c-0.4,0.2-0.8,0.2-1.2,0.2h-8.9c-0.4,0-0.8-0.1-1.2-0.2
		c-0.4-0.2-0.8-0.4-1.1-0.6c-0.3-0.3-0.6-0.6-0.8-0.9c-0.2-0.3-0.3-0.7-0.3-1.1V44.5c0-0.4,0.1-0.7,0.3-1.1c0.2-0.3,0.5-0.7,0.8-0.9
		c0.3-0.3,0.7-0.5,1.1-0.6c0.4-0.2,0.8-0.2,1.2-0.2h8.9c0.4,0,0.8,0.1,1.2,0.2c0.4,0.2,0.8,0.4,1.1,0.6c0.3,0.3,0.6,0.6,0.8,0.9
		c0.2,0.3,0.3,0.7,0.3,1.1v3.3h-4.5v-1.5c0-0.4-0.1-0.7-0.3-0.8c-0.2-0.2-0.4-0.3-0.6-0.3h-4.9c-0.3,0-0.5,0.1-0.7,0.2
		C176,45.6,175.9,45.9,175.9,46.3z M162.3,58.8c-0.5,0-1.1-0.2-1.7-0.5c-0.6-0.3-1.1-0.8-1.6-1.5l-5.6-7.8v9.7H149V41.6h4.5l6.9,9.7
		v-9.7h4.5v17.3H162.3z M130.9,46.3c0-0.4,0.1-0.7,0.3-0.9c0.2-0.2,0.5-0.2,0.7-0.2h4.9c0.2,0,0.4,0.1,0.6,0.3
		c0.2,0.2,0.3,0.4,0.3,0.8v7.9c0,0.4-0.1,0.7-0.3,0.8c-0.2,0.2-0.4,0.3-0.6,0.3H132c-0.3,0-0.5-0.1-0.7-0.2
		c-0.2-0.2-0.3-0.4-0.3-0.9V46.3z M142.3,44.5c0-0.4-0.1-0.7-0.3-1.1c-0.2-0.3-0.5-0.7-0.8-0.9c-0.3-0.3-0.7-0.5-1.1-0.6
		c-0.4-0.2-0.8-0.2-1.2-0.2h-8.9c-0.4,0-0.8,0.1-1.2,0.2c-0.4,0.2-0.8,0.4-1.1,0.6c-0.3,0.3-0.6,0.6-0.8,0.9
		c-0.2,0.3-0.3,0.7-0.3,1.1V56c0,0.4,0.1,0.7,0.3,1.1c0.2,0.3,0.5,0.7,0.8,0.9c0.3,0.3,0.7,0.5,1.1,0.6c0.4,0.2,0.8,0.2,1.2,0.2h8.9
		c0.4,0,0.8-0.1,1.2-0.2c0.4-0.2,0.8-0.4,1.1-0.6c0.3-0.3,0.6-0.6,0.8-0.9c0.2-0.3,0.3-0.7,0.3-1.1V44.5z M108.4,46.3v7.9
		c0,0.4,0.1,0.7,0.3,0.9c0.2,0.2,0.5,0.2,0.7,0.2h4.9c0.2,0,0.4-0.1,0.6-0.3c0.2-0.2,0.3-0.4,0.3-0.8v-1.5h4.5V56
		c0,0.4-0.1,0.7-0.3,1.1c-0.2,0.3-0.5,0.7-0.8,0.9c-0.3,0.3-0.7,0.5-1.1,0.6c-0.4,0.2-0.8,0.2-1.2,0.2h-8.9c-0.4,0-0.8-0.1-1.2-0.2
		c-0.4-0.2-0.8-0.4-1.1-0.6c-0.3-0.3-0.6-0.6-0.8-0.9c-0.2-0.3-0.3-0.7-0.3-1.1V44.5c0-0.4,0.1-0.7,0.3-1.1c0.2-0.3,0.5-0.7,0.8-0.9
		c0.3-0.3,0.7-0.5,1.1-0.6c0.4-0.2,0.8-0.2,1.2-0.2h8.9c0.4,0,0.8,0.1,1.2,0.2c0.4,0.2,0.8,0.4,1.1,0.6c0.3,0.3,0.6,0.6,0.8,0.9
		c0.2,0.3,0.3,0.7,0.3,1.1v3.3h-4.5v-1.5c0-0.4-0.1-0.7-0.3-0.8c-0.2-0.2-0.4-0.3-0.6-0.3h-4.9c-0.3,0-0.5,0.1-0.7,0.2
		C108.5,45.6,108.4,45.9,108.4,46.3z"/>
	<path class="st1" d="M23,23.7c3.7-9.8,13.1-16.8,24.2-16.9V1.4C33.9,1.5,22.5,9.9,18,21.7C19.7,22.3,21.4,23,23,23.7 M41.5,58.3
		l0,0.2c-11.5-2.7-20.1-13-20.1-25.4c0-0.5,0-1,0-1.5c-1-0.7-2.1-1.3-3.2-1.9c-0.6-0.3-1.2-0.6-1.8-0.9l0,0c-0.2,1.3-0.3,2.7-0.3,4
		c0,15.2,10.7,27.9,25.1,30.8c0.4,0.1,0.2,0,0.5,0.1c3.8,0.2,3.5-2.5,3.3-4.2C45,59.5,41.5,58.5,41.5,58.3z"/>
	<g>
		<defs>
			<path id="SVGID_1_" d="M47.1,64.6L47.1,64.6L47.1,64.6C47.1,64.6,47.1,64.6,47.1,64.6L47.1,64.6z M37.5,62.7
				c0.1,0,0.2,0.1,0.3,0.1C37.7,62.8,37.6,62.7,37.5,62.7z M16.9,39.8c0,0.1,0,0.2,0.1,0.3C16.9,40,16.9,39.9,16.9,39.8z M16.2,34.4
				c0,0.1,0,0.2,0,0.3L16.2,34.4z M16.1,33.6c0,0.1,0,0.2,0,0.3C16.1,33.8,16.1,33.7,16.1,33.6z M39.4,68.9
				c-16.5-3.7-28.8-18.4-28.8-36c0-2.5,0.2-4.9,0.7-7.2c1.8,0.3,3.5,0.8,5.2,1.3c1.8,0.6,3.5,1.3,5.1,2.2
				c10.4,5.3,18,15.5,19.7,27.5c0.3,2.3,0.4,4.7,0.4,7.1c1.7,0.3,3.5,0.5,5.3,0.6c0.1,0,0.1,0,0.2,0c0-0.8,0.1-1.5,0.1-2.3
				c0-1,0-2.1-0.1-3.1C46,43.4,36.5,30.1,23,23.7c-1.6-0.8-3.3-1.4-5-2c-1.7-0.6-3.4-1-5.2-1.3C10.9,20,9,19.8,7.1,19.7
				c-0.6,1.8-1.1,3.6-1.4,5.5C5.3,27.7,5,30.3,5,32.9c0,20.7,14.8,37.9,34.4,41.7V68.9z"/>
		</defs>
		<clipPath id="SVGID_2_">
			<use xlink:href="#SVGID_1_"  style="overflow:visible;"/>
		</clipPath>
		<linearGradient id="SVGID_3_" gradientUnits="userSpaceOnUse" x1="18.6967" y1="25.0436" x2="31.4172" y2="62.9175">
			<stop  offset="0" style="stop-color:#E2C581"/>
			<stop  offset="1" style="stop-color:#C29A4A"/>
		</linearGradient>
		<rect x="5" y="19.7" class="st2" width="42.2" height="54.9"/>
	</g>
	<g>
		<defs>
			<path id="SVGID_4_" d="M53.2,64L53.2,64L53.2,64L53.2,64L53.2,64z M47.7,64.6L47.7,64.6l0.2,0l0,0C47.8,64.6,47.7,64.6,47.7,64.6
				z M55.9,74.5C75.3,70.7,90,53.5,90,32.9c0-2.6-0.2-5.2-0.7-7.7c-0.3-1.9-0.8-3.7-1.4-5.5c-1.9,0.1-3.8,0.3-5.6,0.7
				c-1.8,0.3-3.5,0.8-5.2,1.3c-1.7,0.6-3.4,1.2-5,2C58.5,30,48.8,43.3,47.7,59c-0.1,1-0.1,2-0.1,3.1c0,0.8,0,1.5,0.1,2.3l0,0
				c0.1,0,0.1,0,0.2,0c0.2,0,0.3,0,0.5,0c1.7,0,3.3-0.1,4.9-0.4l0-0.1c0-0.6,0-1.2,0-1.9c0-1.2,0.1-2.5,0.2-3.7
				c1.3-12.8,9.1-23.7,20.1-29.2c1.6-0.8,3.4-1.5,5.1-2.1c1.7-0.6,3.4-1,5.2-1.3c0.5,2.3,0.7,4.7,0.7,7.2c0,17.5-12.2,32.2-28.6,36
				V74.5z"/>
		</defs>
		<clipPath id="SVGID_5_">
			<use xlink:href="#SVGID_4_"  style="overflow:visible;"/>
		</clipPath>
		<linearGradient id="SVGID_6_" gradientUnits="userSpaceOnUse" x1="61.4381" y1="25.0114" x2="74.1011" y2="62.8997">
			<stop  offset="0" style="stop-color:#E2C581"/>
			<stop  offset="1" style="stop-color:#C29A4A"/>
		</linearGradient>
		<rect x="47.6" y="19.7" class="st3" width="42.4" height="54.8"/>
	</g>
	<path class="st1" d="M47.1,36.9c-3.9-3.1-6.4-7.5-6.4-12.3c0-4.8,2.4-9.1,6.4-12.3c3.9,3.1,6.4,7.5,6.4,12.3
		C53.5,29.5,51.1,33.8,47.1,36.9"/>
</g>
</svg>
